<svg xmlns="http://www.w3.org/2000/svg" viewBox="0 0 32 32">
  <!-- Background: ink dark rounded square -->
  <rect width="32" height="32" rx="6" fill="#090f1e"/>
  <!-- Book icon (scaled from 20x20 to fit 32x32 with padding) -->
  <g transform="translate(4, 4) scale(1.2)">
    <path fill="#c9a84c" d="M9 4.804A7.968 7.968 0 005.5 4c-1.255 0-2.443.29-3.5.804v10A7.969 7.969 0 015.5 14c1.669 0 3.218.51 4.5 1.385A7.962 7.962 0 0114.5 14c1.255 0 2.443.29 3.5.804v-10A7.968 7.968 0 0014.5 4c-1.255 0-2.443.29-3.5.804V12a1 1 0 11-2 0V4.804z"/>
  </g>
</svg>
